<svg xmlns="http://www.w3.org/2000/svg" viewBox="0 0 394.04 260.15"><defs><style>.cls-1{fill:#ddd074;}.cls-1,.cls-2,.cls-3,.cls-4{fill-rule:evenodd;}.cls-2{fill:#e31c2a;}.cls-3{fill:#2d2c2b;}.cls-4{fill:#fff;}</style></defs><g id="Слой_2" data-name="Слой 2"><g id="_3d321c96-df03-11ea-a557-0242ac11000f" data-name="3d321c96-df03-11ea-a557-0242ac11000f"><g id="g18"><path id="path4" class="cls-1" d="M215.51,148.17c-20.4-29.54-43.44-54.27-72.26-74.73Q172.43,30.35,218.66,0c21,30.34,43.72,55.68,72.25,74.73C260.05,94.42,235.77,119.62,215.51,148.17Z"/><path id="path6" class="cls-2" d="M215.59,142.08c-18.74-27.12-41-50.46-67.44-69.24Q174.94,33.26,217.39,5.4c19.3,27.86,41.24,51.75,67.44,69.25C256.49,92.73,234.19,115.87,215.59,142.08Z"/><path id="path8" class="cls-3" d="M159.23,208.37v0Z"/><path id="path10" class="cls-2" d="M177.87,186.08a1.37,1.37,0,0,1-.77.44c-.38,0-.57-.17-.58-.51a1.39,1.39,0,0,1,.29-.6,4.67,4.67,0,0,0,1.51-2.93c0-1.83-2.26-2.73-6.74-2.69q-8.62.06-17.66,7.78-8,7-8,11.56c0,1.2.69,1.8,2,1.78a10.17,10.17,0,0,0,3.54-1,24,24,0,0,0,9.24-6.34,16,16,0,0,0,2.55-5.34,27.28,27.28,0,0,0,.91-5c.25-1.09,1.43-1.64,3.54-1.66s2.91.46,2.79,1.43a65.63,65.63,0,0,1-1.28,7.35q-1.11,5.11-3.25,13.11l-.75,2.58c-.51,1.8-1.14,3.64-1.87,5.51a283.31,283.31,0,0,1,72-1c14.84,1.68,36.18,4.34,51.8,8.17-.05-.63-.07-1.27-.07-1.85a47.8,47.8,0,0,1,2.16-10.08,70.42,70.42,0,0,1,3.9-9.55c1.51-3,3.22-6.13,5.13-9.39,4.45-7.61,8.51-14.73,13.23-22.29.5-.81,1.84.33,2.39,1a3.56,3.56,0,0,1,.86,2.45,11.07,11.07,0,0,1-.47,2.59c-5.29,11.25-11.64,22.23-16.73,33.69l.23.18c5.68-7,12.93-15.77,21.77-21.07,5.14-8.77,11.67-15.67,17.64-15.91a14.43,14.43,0,0,1,3.33.45,18,18,0,0,1-1.72,1.66q-3.08,2.59-7.71,9.43h0q-2.58,3.8-5.63,8.88-9.42,15.78-10.43,24.93-.48,4.24,1.58,4.67c5.65,1.15,20.74-25.23,25.07-39.76.9-3,.74-5.4,1.06-8.35.07-.65.24-.95.52-.9,1,.21,1.73,1.58,2.19,4.13,2.75,15-11.29,52.93-30.47,48.22-7.2-1.77-5.46-15.47.1-28.54a104.07,104.07,0,0,0-12.3,13.35c-1.32,1.65-5,5.13-6.57,7.6-.71,1.13-2.13,3.79-3.67,5.91h0l-.21.29h0c-.58.88-1.72,3-3.51,2.67-20.9-3.92-41.91-9.92-62.52-11.76-21.32-1.89-43.52-1-64.44,3.8-11.39,25.18-40.31,53.39-68.54,42.57C81.29,253.15,77,239,78.6,219.72a107.52,107.52,0,0,1,8-33c3.26-7.8,6.53-14.28,9.24-19.7s5.37-10.64,8-15.58,5.24-9.58,7.77-14,5.42-9.46,8.8-15.27l-.39-.36a186.58,186.58,0,0,0-15.1,17.68c-10.25,13.54-19.61,27.7-28.77,42-5.45,8.43-9.25,14.22-11.45,17.32-5.21,7.23-9.7,10.88-13.52,10.88a5,5,0,0,1-3.95-2.32c-4.74-6.08.16-21,1.84-26.82a137.6,137.6,0,0,1,6.32-17.44Q59,154.9,63.69,146T73,128.14l-.36-.36A119.54,119.54,0,0,0,56.1,148.42q-6.87,11-18.68,32.66c-8.9,16.47-17.91,33.57-25.83,50.52C9.59,235.88,8.2,240,2.5,240,.84,240,0,239,0,236.78a9,9,0,0,1,.36-2.14c2.63-10.2,8-19.91,12.62-29.28q5.52-11.16,12.21-23T38.77,160A503.63,503.63,0,0,1,71.28,116c3.08-3.63,8.52-10.84,13.83-10.84A4.58,4.58,0,0,1,89,107a7.15,7.15,0,0,1,1.38,4.49,16.07,16.07,0,0,1-1.68,6.82q-2.58,5.53-9.92,19.75-9,17.52-14.88,31.58a109.32,109.32,0,0,0-7.68,26.69l.36.33c1.66-2.29,4.34-6.05,8-11.33,10.31-14.91,20.34-30,30.7-44.89q19.08-26.79,28.38-35.24a11.24,11.24,0,0,1,7.74-3.29,4.7,4.7,0,0,1,3.62,1.42,4.6,4.6,0,0,1,1.29,3.31c-.33,2.89-1.83,7-4.58,12.17s-6.41,11.87-11.11,19.89-7.71,13.43-9.07,16.24c-3.34,6.95-6.78,14.52-10.27,22.65s-6.59,16.14-9.25,24c-3.37,9.95-5.83,19.13-6.09,28.8-.32,11.36,2.56,19.38,8.53,23.37,24.06,16.1,49.11-11.43,60.89-36.93a141.11,141.11,0,0,0-36.79,15.52,36.61,36.61,0,0,0-10.69,10c-1.06,1.44-1.44,2.74-2.71,3.66-2.25,1.61-5.7.66-5-3.05.27-1.4,1.28-3.14,3.13-5.55,9.23-12,29.33-20.27,53.86-24.71a79.92,79.92,0,0,0,3.94-12.14q.6-2.62,1.43-6.41l-2.28,2.08q-2.39,2.16-4.09,3.6c-1.15.95-2.07,1.69-2.76,2.21-3,2.14-5.66,3.22-8,3.24q-4.22,0-4.25-4.95a8.92,8.92,0,0,1,.24-2.15q-9.79,8.87-17,8.3a5.38,5.38,0,0,1-3.75-2,7.15,7.15,0,0,1-2-5.21A13.37,13.37,0,0,1,119,196q-6.93,7.53-10.76,9.19a10.81,10.81,0,0,1-4,1c-2.94,0-4.42-1.45-4.45-4.42,0-2.5,1-5.83,3.16-9.91,2.06-3.88,4.63-7.39,6.55-11.36.27-.57,1-2.52-3.25.48-.78.56-1.19,1.82-2.39,2.71-1.79,1.33,1.19-5.1,5.59-8.27,3.77-2.72,9.2-2.74,6.68,3-1.8,4.11-4.86,8.24-7.28,12.13q-.8,1.29-1.56,2.67c-1.82,3.33-2.73,5.86-2.71,7.57,0,2.12.6,3.17,1.75,3.17q4,0,9.52-6.86a49.55,49.55,0,0,0,7.57-12.42c.7-.81,1.94-1.22,3.73-1.23,1,0,1.44.22,1.44.67a1.18,1.18,0,0,1-.19.52q-5.48,9.92-5.43,15.4,0,4.29,3.87,4.26,6,0,15.16-9a4,4,0,0,1,.68-.52q2.73-4.8,10.16-10,9.63-6.86,19.49-6.93c5.12-.05,7.68,1.25,7.7,3.88Q180,183.58,177.87,186.08Z"/><path id="path12" class="cls-2" d="M265.43,184q-7.95-.1-13.62,10.07a9.88,9.88,0,0,0-1.59,4.9c0,1.54.63,2.31,1.84,2.3s2.65-.71,4.49-2.09q4.95-3.83,6.45-7.61A22.76,22.76,0,0,1,265.43,184ZM284.17,191c-1.51-1.11-4.13-.11-5.84,2.23s-1.88,5.13-.37,6.24a2.78,2.78,0,0,0,2.4.32c-3.38,1.9-8.39,3.93-10.46,2.1a7,7,0,0,1-2.26-5.59,21,21,0,0,1,3.46-11c0-.06.12-.14.38-.26a7.6,7.6,0,0,1,.81-.31,3,3,0,0,0,.77-.34.61.61,0,0,0,.33-.48,1.67,1.67,0,0,0-.54-1.2,4.94,4.94,0,0,0-1.35-.89c-3.11-1.44-6.57-.64-9.63.64q-7.65,3.28-13.76,11.69l-.42.35q-6.56,6.24-12.39,8.43a22.64,22.64,0,0,1-7.36,1.6q-5.74,0-5.79-4.93a9.59,9.59,0,0,1,.59-3.26,19.34,19.34,0,0,1,1.65-3.45,21.58,21.58,0,0,1,2.56-3.37,20.69,20.69,0,0,1,3.43-2.94,10.28,10.28,0,0,1,5.83-2.11c1.47,0,2.21.53,2.21,1.61a5.7,5.7,0,0,1-1,2.84c-.5.87-.43,1.29.21,1.29a1.35,1.35,0,0,0,.76-.44,12.07,12.07,0,0,0,.85-1.08,11.11,11.11,0,0,0,.95-1.59,8,8,0,0,0,1.12-3.53q0-3.94-4.92-3.9-5.94,0-12.4,7a25.14,25.14,0,0,0-5.09,7.56,5,5,0,0,0-.6.47q-9.12,8.91-15.16,9-3.84,0-3.87-4.26,0-5.49,5.43-15.4a1.18,1.18,0,0,0,.19-.52c0-.46-.48-.68-1.44-.67-1.79,0-3,.42-3.73,1.23a50,50,0,0,1-7.56,12.42q-5.5,6.83-9.53,6.85c-1.15,0-1.74-1-1.75-3.16,0-1.71.89-4.24,2.71-7.57q.76-1.38,1.56-2.67c.54-.87,1.06-1.76,1.56-2.68.32-.8-.13-1.2-1.35-1.19-2,0-3.38.55-4,1.58q-5.3,8.72-5.26,13.51c0,3,1.51,4.45,4.45,4.43a10.65,10.65,0,0,0,4-1q3.82-1.65,10.76-9.18a13.36,13.36,0,0,0-.45,3.26,7.15,7.15,0,0,0,2,5.22,5.33,5.33,0,0,0,3.76,1.94q7.35.58,17.47-8.76a9.76,9.76,0,0,0-.09,1.42q.06,8.15,8.5,8.08,9.49-.09,19.35-8.18a10,10,0,0,0-.52,3.13c0,2.69,1.22,4,3.58,4q2.5,0,6.31-2.8a36.53,36.53,0,0,0,3.95-3.42,51.64,51.64,0,0,0,3.65-4.11,14.44,14.44,0,0,0,2.74,7.27c2.73,3.13,6.68,3.63,10.31,1.68s8-6.79,7.6-6.42l-.15.14a6.36,6.36,0,0,0,.46-.57C285.52,194.88,285.68,192.08,284.17,191Z"/><path id="path14" class="cls-2" d="M354.9,218.17c1-1.25,2.68-3.31,4.91-6.2,6.74-8.63,13.21-17.07,20.5-25.36,3.71-4.22,7.85-8.12,13.73-9.37-6.85,6.14-12.7,13.39-18.11,20.55-2.62,3.44-5.62,7.46-9,12.09s-5.71,7.78-7.07,9.48c-3.22,3.95-6,5.94-8.35,5.94a3.17,3.17,0,0,1-2.43-1.26c-2.93-3.33.1-11.5,1.13-14.67a69.79,69.79,0,0,1,3.91-9.54q2.25-4.5,5.13-9.39T365,180.7l-.22-.2a67.2,67.2,0,0,0-10.21,11.29c-2,2.81-6.26,9.6-10,12.69-4,3.3-7.26,2.56-.67-6.38,2.83-3.85,5.89-7.66,9.19-11.47,1.24-1.4,3-3.44,5.22-6.11s4.13-4.81,5.65-6.45c1.9-2,5.26-5.93,8.54-5.93a3,3,0,0,1,2.4,1c2,2.34.11,5.69-1.12,7.92s-2.9,5.13-5.19,9.07q-5.55,9.58-9.18,17.27a54.55,54.55,0,0,0-4.74,14.6Z"/><path id="path16" class="cls-4" d="M172.41,97.35c-1.15-1.09-2.31-2.16-3.48-3.23,1-2.9,2.14-5.71,3.24-8.42q2.19-5.36,4.87-11.08c1.81-3.81,3.63-7.41,5.49-10.81s3.89-6.78,6.07-10.15q1.25-1.87,3.47-5.43c1.48-2.36,2.74-4.27,3.75-5.72,1.21-1.67,3.47-5.26,5.8-5.35a1.91,1.91,0,0,1,1.71.79,3.56,3.56,0,0,1,.68,2.1,11.75,11.75,0,0,1-.24,2.25q-.71,2.09-4.31,10.51T193.57,68a55.59,55.59,0,0,0-2.85,12.75l.16.15c.68-1.11,1.77-2.93,3.24-5.48,7.41-12.74,14.34-28.37,24.16-38.86a4.71,4.71,0,0,1,3.29-1.68,2,2,0,0,1,1.59.61,2.27,2.27,0,0,1,.62,1.55A19.24,19.24,0,0,1,222,42.85c-4.1,9.56-8.67,18.38-12.15,28.29-2.75,7.83-5.81,16.74-5.71,25.23a27,27,0,0,0,1.49,9.21c.54,1.7,1.35,2.85,1.14,3s-1-.5-1.75-1.3c-2.93-2.95-3.89-7.07-4.17-11.23a42,42,0,0,1-.05-4.65c.62-16.38,9.57-32.77,16.37-46.81l-.18-.17c-9.35,11.15-15.11,24.79-22.58,37.32-2.13,3.5-4,5.3-5.67,5.36a2.15,2.15,0,0,1-1.74-1c-1.54-2-.82-5.64-.53-7.91.2-1.6.49-3.2.85-4.8A69,69,0,0,1,189.77,65q1.44-3.95,3.3-8.25t3.71-8.58l-.16-.16a55.72,55.72,0,0,0-6.8,10c-1.85,3.53-4.36,8.79-7.51,15.74q-8.15,18.18-8.73,20C173.16,95.18,172.77,96.34,172.41,97.35Zm73.75-18.77c.53-.65,1.39-1.7,2.55-3.18s2.3-2.93,3.42-4.38c3.42-4.42,8.77-12.46,14.43-13.31l-.12-.1a73.48,73.48,0,0,0-9.39,10.53c-1.36,1.77-2.91,3.83-4.65,6.2s-3,4-3.66,4.86c-1.67,2-3.1,3-4.32,3A1.91,1.91,0,0,1,242.79,81c-.76-2,.53-5.48,1-6.92a36.24,36.24,0,0,1,2-4.9q1.18-2.31,2.67-4.82c1-1.67,2-3.33,3-5l-.12-.1A34.37,34.37,0,0,0,246.09,65c-1,1.44-3.25,4.93-5.2,6.51l-.29.23c-2.47,6.93-7.73,15.91-14.4,14.23-2.29-.58-2.81-3.48-2.19-7.2-1.17,1.2-2.46,2.66-4.08,4.66a46.09,46.09,0,0,0-3.41,3.9c-.38.61-1.17,2.07-2,3.18-2.31,3.06-2.7.08-2.69-1.86A24.52,24.52,0,0,1,213,83.46a37.75,37.75,0,0,1,2-4.91c.79-1.54,1.68-3.14,2.67-4.82,2.31-3.91,4.43-7.56,6.87-11.44.26-.42.95.17,1.24.51a1.9,1.9,0,0,1,.43,1.27A5.47,5.47,0,0,1,226,65.4c-2.75,5.78-6,11.42-8.71,17.3l.12.1a64.09,64.09,0,0,1,7.71-8.23c2.62-8,8.7-17,13.66-15.95l.35.08.42.09a10.12,10.12,0,0,1-.89.84q-2.48,2.07-6.92,9.4c-.59,1-1.14,1.91-1.63,2.82h0q-3.37,6.14-3.82,10c-.16,1.45.1,2.26.81,2.4,3.28.7,12.88-16.71,13.6-23a4.08,4.08,0,0,0,0-.86,3.65,3.65,0,0,1,0-.87c0-.33.13-.49.27-.46.51.11.89.82,1.12,2.13a22.33,22.33,0,0,1,.11,4,7.56,7.56,0,0,1-.09,1.07c2.8-3.55,5.81-7.1,8.91-10.37,1-1.09,2.76-3,4.41-3a1.54,1.54,0,0,1,1.24.51,1.9,1.9,0,0,1,.43,1.27,6.47,6.47,0,0,1-1.15,3q-.9,1.61-2.58,4.44Q250.42,67,248.53,71a28.37,28.37,0,0,0-2.48,7.5Zm-35.07-6.31a5.67,5.67,0,0,1,4-4.26c1.81-.31,2.93,1.08,2.5,3.12a5.69,5.69,0,0,1-4,4.26C211.78,75.7,210.66,74.3,211.09,72.27Z"/></g></g></g></svg>