<svg xmlns="http://www.w3.org/2000/svg" viewBox="0 0 394.04 118.82"><defs><style>.cls-1{fill:none;}.cls-2{fill:#e31c2a;}.cls-2,.cls-3{fill-rule:evenodd;}.cls-3{fill:#273786;}</style></defs><g id="Слой_2" data-name="Слой 2"><g id="_3d321c96-df03-11ea-a557-0242ac11000f" data-name="3d321c96-df03-11ea-a557-0242ac11000f"><g id="g46"><g id="g36"><path id="path4" class="cls-1" d="M0,7.83H332.82a11.94,11.94,0,0,1,1.52-2.15,17.26,17.26,0,0,1,6.88-4.57,15.58,15.58,0,0,1,7.95-.93,7.81,7.81,0,0,1,6.51,5.46A8.82,8.82,0,0,1,356,7.21,15.19,15.19,0,0,1,362,6.94a8.13,8.13,0,0,1,6.79,5.67,8.39,8.39,0,0,1,.05,4.39,16.05,16.05,0,0,1,3.11.21c3.33.59,6.56,2.5,7.66,6.3,1,3.55-.32,7-2.43,9.62a17.93,17.93,0,0,1,5.64,2c3,1.72,5.52,4.67,5.52,8.65a9.49,9.49,0,0,1-3.86,7.51,22,22,0,0,1,4,2.29c3.22,2.38,5.93,6.08,5.51,10.66s-3.75,7.58-7.36,9.12a24.34,24.34,0,0,1-12.37,1.43l-.94-.13V109.6H290.76a8,8,0,0,1-1.35,3.77c-1.68,2.43-4.37,3.09-6.86,3.9l-4.72,1.55-.4-5a14.19,14.19,0,0,1-6.52.75,15.1,15.1,0,0,1-9.29-5H0Z"/><path id="path6" class="cls-1" d="M291.73,79.87c-.39,2.6-.77,5.2-1.1,7.82-.75,6-1.29,11.92-1.52,17.92.33,2.29.45,4.79-.89,6.72a6.3,6.3,0,0,1-2.85,2.18c-1.05.46-2.17.78-3.25,1.14l-2.95,1-.27-3.43c0-.6-.09-1.2-.13-1.8a12.76,12.76,0,0,1-7.69,1.49,13.69,13.69,0,0,1-8.62-4.73A17.7,17.7,0,0,1,258.36,95l.09-.78-.41,0c-1.52.13-3.15-.2-3.84-2a3.71,3.71,0,0,1,.78-3.8,10.79,10.79,0,0,1,1.88-1.64l.08-.06,3.3-2,8.44-5.93,13.17-8.26,1-3.91v0a105.7,105.7,0,0,1,13.62-30.2c5.32-7.87,12.33-15.19,20.73-18.62,5.17-2.23,10.81-3.78,16.32-3.57,0-.12-.08-.23-.11-.35a7.54,7.54,0,0,1,2-7,15.72,15.72,0,0,1,6.28-4.16,14.41,14.41,0,0,1,7.25-.87,6.31,6.31,0,0,1,5.3,4.32,6.13,6.13,0,0,1,0,3.29,15.17,15.17,0,0,1,7.53-.85,6.64,6.64,0,0,1,5.59,4.52,7.24,7.24,0,0,1-1,5.82,15.89,15.89,0,0,1,5.37-.06c2.74.48,5.53,2,6.45,5.14s-.56,6.22-2.51,8.43a16.79,16.79,0,0,1-2.07,2,18.56,18.56,0,0,1,8.54,2.25c2.46,1.43,4.7,3.84,4.7,7.15s-2.24,5.72-4.71,7.13a14.59,14.59,0,0,1-1.54.75,21.89,21.89,0,0,1,7,3.34c2.73,2,5.2,5.16,4.84,9.06s-3.34,6.41-6.39,7.72a23.12,23.12,0,0,1-11.66,1.33A24.15,24.15,0,0,1,363.29,69a14.11,14.11,0,0,1-3-2.88,15.64,15.64,0,0,1-2.43,7.63A10,10,0,0,1,355,76.51l-.06,0-.06,0A31.09,31.09,0,0,1,346,80.19a7.43,7.43,0,0,1-6.61-1.54,10.3,10.3,0,0,1-2.79-6.27,32.3,32.3,0,0,1-.27-5.14,86,86,0,0,0-9.2.61,84.36,84.36,0,0,0-19.92,5.23ZM296.48,63a215,215,0,0,1,19.86-8.71,84.12,84.12,0,0,1,20.88-4.81,30.09,30.09,0,0,0-1.06-10.54,10.61,10.61,0,0,0-4.33-6c-4.21-2.57-9.76-.83-13.76,1.42C311.49,38,305.89,44.57,301.9,51.42l-3.25,5.9Z"/><g id="g24"><path id="path8" class="cls-2" d="M376.23,53.69c8,1,14.17,5.54,13.75,10.14s-7.25,7.52-15.27,6.52S360.54,64.81,361,60.21,368.21,52.69,376.23,53.69Z"/><path id="path10" class="cls-2" d="M373,37.24c6.29,0,11.39,3,11.39,6.59s-5.09,6.51-11.38,6.48-11.38-3-11.38-6.59S366.68,37.21,373,37.24Z"/><path id="path12" class="cls-2" d="M363.21,22.7c6-2.21,11.61-1.23,12.6,2.2s-3.05,8-9,10.23-11.6,1.23-12.59-2.2S357.24,24.92,363.21,22.7Z"/><path id="path14" class="cls-2" d="M354.83,12.23c4.81-1.79,9.36-1,10.16,1.77s-2.46,6.46-7.27,8.25-9.36,1-10.16-1.77S350,14,354.83,12.23Z"/><path id="path16" class="cls-2" d="M342.49,5.4c4.43-1.64,8.62-.91,9.35,1.64s-2.26,5.94-6.69,7.59-8.62.91-9.35-1.63S338.06,7.05,342.49,5.4Z"/><path id="path18" class="cls-2" d="M273.78,83.33c6.47.81,11.16,7.45,10.49,14.82s-6.45,12.71-12.91,11.91-11.16-7.44-10.49-14.82S267.33,82.53,273.78,83.33Z"/><path id="path20" class="cls-2" d="M262.26,90.16l20.27-9.29,23.79-10.44c12.3-4.72,21.28-6.11,32.61-6-.61,11.86,1.2,17.19,14.86,9.64,7-4.42,3.2-18,2.33-31.22-4.27-21.73-16.87-31.52-38-22.38-14.56,5.92-26.79,25.55-32.83,47l-1.26,5-14,8.8-8.46,5.93-3.29,2C253.61,92.51,259.35,91.48,262.26,90.16Zm29.42-21.79c16.51-7.88,29.95-15.1,47.87-16.27,3.18-32.5-24.21-29-39.78-2.2L296.41,56Z"/><path id="path22" class="cls-2" d="M282.53,80.87a131.11,131.11,0,0,0-1.11,32.06c4.54-1.48,6-1.65,5.15-7.15a273.6,273.6,0,0,1,3.51-32l-7.35,4.81Z"/></g><path id="path26" class="cls-2" d="M5.9,13.39H291.6v1.68H5.9Z"/><path id="path28" class="cls-2" d="M5.9,102.33H242V104H5.9Z"/><path id="path30" class="cls-2" d="M5,104V13.39h1.5V104Z"/><path id="path32" class="cls-2" d="M301.82,102.33h66.42V104H301.82Z"/><path id="path34" class="cls-2" d="M366.91,104V76.85h1.5V104Z"/></g><g id="g44"><path id="path38" class="cls-3" d="M16.8,22.8H70.2V75.16H56.68V31.4H30.3V75.16H16.8Zm114.12,0V75.16H117.4V55.71h-8.09L96.39,75.16H80.19L96.08,53.6a22.08,22.08,0,0,1-9-4.57C84.31,46.77,83,43.42,83,39q0-7,4.6-10.56a23.28,23.28,0,0,1,10.34-4.6,65.4,65.4,0,0,1,11.42-1ZM117.4,47.47V31h-7.71a23.37,23.37,0,0,0-8.37,1.54c-2.71,1-4.08,3.27-4.08,6.68a7.18,7.18,0,0,0,3,5.86c2,1.58,5.17,2.36,9.58,2.36ZM139,22.8h52v9.29H171.73V75.16h-13.5V32.09H139Zm60.07,0h13.5V45.18h.3L236.94,22.8H253l-27.8,23.7,29.52,28.66H237.62l-24.76-26h-.3v26h-13.5Z"/><path id="path40" class="cls-3" d="M16.8,22.72H70.27V75.24H56.61V31.48H30.37V75.24H16.73V22.72Zm53.33.16H16.88v52.2H30.23V31.32H56.75V75.08H70.13ZM131,22.8V75.24H117.33V55.79h-8L96.44,75.21l0,0H80l.1-.13L96,53.65c-.41-.1-.83-.21-1.24-.34s-.9-.3-1.33-.46A22.74,22.74,0,0,1,87,49.09h0a10.46,10.46,0,0,1-3.11-4.24,15.44,15.44,0,0,1-1-5.88A15.32,15.32,0,0,1,84,32.81a11.39,11.39,0,0,1,3.47-4.47h0c.43-.33.87-.65,1.31-.95s.9-.59,1.36-.85a23.27,23.27,0,0,1,7.7-2.81h0c1.92-.34,3.84-.59,5.74-.76s3.8-.25,5.69-.25H131Zm-.14,52.28V22.88H109.31c-1.88,0-3.77.08-5.68.25s-3.81.42-5.73.76h0a23.19,23.19,0,0,0-7.65,2.79c-.46.26-.91.55-1.35.85s-.88.61-1.31.94h0a11.18,11.18,0,0,0-3.42,4.41A14.94,14.94,0,0,0,83,39a15.35,15.35,0,0,0,1,5.82A10.44,10.44,0,0,0,87.1,49h0a22.82,22.82,0,0,0,6.32,3.73c.44.16.88.32,1.32.45s.9.27,1.36.38h0l.11,0-.07.11L80.34,75.08h16l12.91-19.42,0,0h8.19V75.08ZM117.33,47.39V31.11h-7.64a23,23,0,0,0-4.23.38,23.44,23.44,0,0,0-4.12,1.16h0a6.37,6.37,0,0,0-1,.5,5.75,5.75,0,0,0-.89.64,6.85,6.85,0,0,0-2.09,5.46h0A7.09,7.09,0,0,0,98,42.44a8,8,0,0,0,2.21,2.61,10,10,0,0,0,3.85,1.75,23.69,23.69,0,0,0,5.69.59h7.54ZM117.47,31V47.55h-7.68a24.42,24.42,0,0,1-5.72-.59,10.21,10.21,0,0,1-3.9-1.78,8,8,0,0,1-2.25-2.67,7.08,7.08,0,0,1-.75-3.26h0a7,7,0,0,1,2.14-5.59,5.62,5.62,0,0,1,.92-.65,5.87,5.87,0,0,1,1.07-.51h0a23.68,23.68,0,0,1,4.14-1.17,23.25,23.25,0,0,1,4.25-.38h7.78ZM139,22.72h52.07v9.45H171.8V75.24H158.16V32.17H138.92V22.72Zm51.93.16H139.06V32H158.3V75.08h13.36V32h19.26Zm8.14-.16h13.57V45.1h.21L236.9,22.74l0,0h16.32l-.17.14L225.35,46.5,254.8,75.1l.14.14H237.6l0,0-24.74-26h-.2v26H199V22.72Zm13.43.16H199.13v52.2h13.36v-26h.4l0,0,24.74,26h16.91L225.19,46.56l-.07-.07.07-.05,27.62-23.56H237L212.91,45.24l0,0h-.4V22.88Z"/><path id="path42" class="cls-3" d="M22.87,83.34q4.69,0,5.78.81c.64.46,1,1.68,1,3.67H26.23c0-.65-.18-1.06-.52-1.24a7.52,7.52,0,0,0-2.84-.33c-1.64,0-2.6.13-2.9.39s-.43,1.08-.43,2.49.14,2.24.42,2.49,1.25.37,2.91.37a8.52,8.52,0,0,0,2.8-.27c.37-.19.56-.62.56-1.3H29.6c0,2-.3,3.23-.92,3.68s-2.66.8-5.81.8-5.06-.29-5.72-.88-1-2.22-1-4.91.32-4.29.95-4.85S19.72,83.34,22.87,83.34ZM32,94.74V83.5H43.83v2.72H35.39v1.56h8.06v2.7H35.39V92h8.44v2.72Zm14.83-8.33V83.5H59.9v2.91H55.06v8.33H51.69V86.41Zm15.73,8.33V83.5h3.37v2.75h4.88a6.42,6.42,0,0,1,3.58.68c.72.56,1.09,1.75,1.09,3.57s-.36,3-1.08,3.57-1.78.67-3.59.67Zm3.37-5.58v2.67h4.88a1.4,1.4,0,0,0,.92-.26,1.33,1.33,0,0,0,.37-1.07,1.35,1.35,0,0,0-.37-1.09,1.37,1.37,0,0,0-.92-.25ZM85.58,83.5h6.07l2.88,6.32a4.14,4.14,0,0,1,.1.71c.05.43.1.64.16.64s.1-.2.15-.62a3.94,3.94,0,0,1,.11-.73l2.89-6.32h5.75V94.74h-3.37V86.87a2,2,0,0,1,.07-.49,2.26,2.26,0,0,0,.08-.41.08.08,0,0,0-.09-.09s-.09.05-.14.15l-.17.37-3.9,8.34H93.41l-4.2-8.35c0-.1-.1-.21-.14-.31s-.13-.2-.17-.2-.09,0-.09.12a2.74,2.74,0,0,0,.07.42,1.9,1.9,0,0,1,.08.45v7.87H85.58Zm25.56,0h5.75l5.46,11.24h-3.94l-1-1.89h-6.69l-1.05,1.89h-3.94ZM114.28,86h-.54L111.93,90h4.16Zm9.79-2.52h11v2.91h-7.59v8.33h-3.38Zm17.33,0h5.75l5.46,11.24h-3.94l-1-1.89h-6.69l-1.05,1.89H136ZM144.54,86H144L142.19,90h4.16Zm15,1.88h3.13a4.41,4.41,0,0,0,1.44-.16.65.65,0,0,0,.42-.67.64.64,0,0,0-.39-.65,4.31,4.31,0,0,0-1.47-.17,22.5,22.5,0,0,0-4.17.2c-.39.13-.59.59-.59,1.37h-3.37c0-2,.36-3.3,1.07-3.77s2.6-.71,5.65-.71a32.73,32.73,0,0,1,3.9.15,3.48,3.48,0,0,1,2.11.88,3.22,3.22,0,0,1,.63,2.21,4.28,4.28,0,0,1-.16,1.34,2.49,2.49,0,0,1-1.05,1.21,2,2,0,0,1,1,.86,5,5,0,0,1,.19,1.69,2.62,2.62,0,0,1-1.5,2.73,16.61,16.61,0,0,1-5.14.49q-4.73,0-5.72-.72c-.67-.47-1-1.75-1-3.84H158c0,.82.21,1.3.62,1.44a21.18,21.18,0,0,0,4.14.21,4.33,4.33,0,0,0,1.44-.16.65.65,0,0,0,.42-.67.64.64,0,0,0-.42-.66,4.41,4.41,0,0,0-1.44-.16h-3.13Zm11.27-4.4h3.37v7.75A3.92,3.92,0,0,1,174,92a2.59,2.59,0,0,0-.11.39l0,.08c.08,0,.15-.08.24-.25s.1-.24.16-.36l5.78-8.32h5.53V94.74h-3.37V87a2.29,2.29,0,0,1,.16-.57,2.68,2.68,0,0,0,.16-.53l0-.08c-.06,0-.12.07-.2.21s-.13.28-.2.41l-5.78,8.31h-5.52Zm21.45,0v4h7.29v-4H203V94.74h-3.37V90.37H192.3v4.37h-3.38V83.5Zm28.26,5.63q0,4.08-1,4.89c-.71.59-2.8.88-6.29.88a28.62,28.62,0,0,1-5-.28,2.43,2.43,0,0,1-1.9-1.58,15.57,15.57,0,0,1-.31-3.91c0-2.74.32-4.37.95-4.91s2.8-.88,6.3-.88,5.58.29,6.27.87S220.56,86.39,220.56,89.13Zm-11.12,0c0,1.44.16,2.27.48,2.51a8.73,8.73,0,0,0,3.39.35q2.9,0,3.39-.36c.33-.24.49-1.08.49-2.5s-.16-2.27-.48-2.52-1.45-.36-3.39-.36-3.06.12-3.39.36S209.44,87.69,209.44,89.13Zm16.68,1.1V92H232a1,1,0,0,0,.71-.23.77.77,0,0,0,.27-.62.93.93,0,0,0-.24-.75,1.17,1.17,0,0,0-.74-.19Zm-3.38-6.73h9.81a4.37,4.37,0,0,1,2.3.47,3,3,0,0,1,1.08,2.7,3.06,3.06,0,0,1-.32,1.46,1.89,1.89,0,0,1-.8.83,2.64,2.64,0,0,1,1.51,2.66,3.14,3.14,0,0,1-.77,2.42,3.84,3.84,0,0,1-2.6.7H222.74Zm3.38,2.72v1.49h6a1,1,0,0,0,.63-.17A.66.66,0,0,0,233,87a.72.72,0,0,0-.22-.57,1,1,0,0,0-.63-.18Z"/></g></g></g></g></svg>